<?xml version="1.0" encoding="utf-8"?>
<!-- Generator: Adobe Illustrator 27.2.0, SVG Export Plug-In . SVG Version: 6.00 Build 0)  -->
<svg version="1.1" id="Layer_1" xmlns="http://www.w3.org/2000/svg" xmlns:xlink="http://www.w3.org/1999/xlink" x="0px" y="0px"
	 viewBox="0 0 828 300" style="enable-background:new 0 0 828 300;" xml:space="preserve">
<style type="text/css">
	.st0{fill:#090909;}
</style>
<g>
	<path class="st0" d="M337.45,256.45c-2,1-3.67,1.67-6.34,1.67c-5.34,0-7.67-3.67-7.67-19.02V21.86
		c-14.35,6.67-32.7,10.34-51.73,10.34v5.01c10.01,2.67,10.35,9.68,10.35,30.03v57.4c-7.68-5.34-17.69-8.68-30.7-8.68
		c-17.9,0-34.36,5.54-47.72,15.16c0.26-5.9,0.62-11.9,1-17.49h-5.01C193.96,140.99,176.6,142,155.24,142h-18.69V44.22
		c4-0.67,15.02-1.33,22.69-1.33c35.04,0,47.72,2,63.74,45.72h5.01c-0.33-7.01-0.33-23.03-0.33-29.7c0-8.68,0.33-20.36,0.67-28.7
		c-25.03,0.67-74.08,0.67-114.13,0.67c-12.35,0-31.7-0.33-39.04-0.67v5.01c15.35,2.67,16.69,9.68,16.69,47.05v139.82
		c0,37.38-1.33,44.38-16.69,47.05v5c7.34-0.33,26.7-0.67,39.04-0.67s31.7,0.33,39.04,0.67v-5c-15.35-2.67-16.69-9.68-16.69-47.05
		v-68.74h18.69c10.59,0,19.24,0.2,26.14,2.36c-7.07,12.2-11.13,26.6-11.13,42.35c0,48.72,33.71,80.09,76.09,80.09
		c16.35,0,27.7-5,38.71-14.35c4.67,10.68,13.68,14.35,24.69,14.35c14.02,0,24.03-8.34,30.37-17.35L337.45,256.45z M256.36,265.46
		c-25.7,0-40.04-23.36-40.04-67.41c0-52.39,12.01-71.75,37.71-71.75c14.68,0,24.36,5.67,28.03,12.68v106.45
		c0,4,0.33,7.34,0.67,10.34C275.38,262.79,266.37,265.46,256.36,265.46z"/>
	<g>
		<g>
			<path class="st0" d="M396.84,140.85c-2.43-0.12-7.99-0.23-12.15-0.23c-4.28,0-9.26,0.12-11.81,0.23v-1.16
				c5.32-0.81,5.79-2.31,5.79-15.74V73.37c0-13.54-0.58-14.81-6.37-15.86v-1.16c2.2,0.12,6.95,0.23,11.46,0.23h5.44
				c15.16,0,26.5,0,32.98-0.23c0,0,0.12,2.2,0.12,5.32s-0.12,9.26-0.23,12.04h-1.16c-2.66-12.5-6.94-13.31-19.67-13.31
				c-6.83,0-8.91,0.23-10.53,0.58V94.9H398c10.42,0,14.12-0.93,15.62-10.07h1.16c-0.23,3.59-0.35,7.29-0.35,11.81
				s0.12,7.41,0.35,10.76h-1.16c-1.62-7.87-4.98-8.8-15.74-8.8h-7.18v25.46c0,13.31,0.7,14.81,6.13,15.62V140.85z"/>
			<path class="st0" d="M447.65,140.85c-2.55-0.12-6.13-0.23-10.42-0.23c-4.28,0-7.87,0.12-10.42,0.23v-1.16
				c3.47-0.69,4.98-1.27,4.98-10.53V65.04c0-5.67-0.12-7.41-3.59-8.33v-1.16c4.98-0.12,10.42-1.27,14.47-3.12v76.73
				c0,9.26,1.5,9.84,4.98,10.53V140.85z"/>
			<path class="st0" d="M502.39,130.78c-5.09,7.06-11.69,11-20.95,11c-16.2,0-27.43-12.27-27.43-28.47
				c0-16.67,12.04-28.24,26.27-28.24c11,0,21.88,6.94,21.88,21.76h-36.23c0,0-0.12,1.04-0.12,2.89c0,16.32,8.8,26.39,21.18,26.39
				c4.98,0,9.61-1.62,14.58-6.37L502.39,130.78z M490.36,103.81c-0.23-11-4.28-16.43-10.53-16.43c-7.29,0-12.15,7.29-13.54,16.43
				H490.36z"/>
			<path class="st0" d="M540.36,131.59c-2.55,7.06-6.95,9.95-13.77,9.95c-7.29,0-13.54-3.24-13.54-14.93V94.78
				c0-3.94-1.16-4.28-5.67-4.98v-1.16c8.68-2.89,13.89-11,16.09-19.91l1.74,0.35c-0.58,3.82-1.27,10.76-1.27,16.55h6.48
				c4.86,0,7.52,0,9.61-2.78l0.93,1.04c-1.74,2.66-2.78,3.7-4.51,7.52c0,0-1.62-0.81-6.71-0.81h-5.79v34.72
				c0,8.22,2.2,11.46,7.52,11.46c3.82,0,6.13-1.74,7.99-5.9L540.36,131.59z"/>
			<path class="st0" d="M591.62,131.24c-4.63,6.48-10.88,10.53-20.25,10.53c-16.55,0-27.54-12.38-27.54-28.24
				c0-16.67,12.27-28.47,28.82-28.47c10.42,0,18.63,4.75,20.25,13.43h-11.23c-0.35-6.25-2.54-11.11-9.84-11.11
				c-10.99,0-15.97,11-15.97,23.61c0,16.32,8.33,25.81,20.37,25.81c5.56,0,10.53-1.97,14.58-6.37L591.62,131.24z"/>
			<path class="st0" d="M654.36,140.85c-2.55-0.12-6.13-0.23-10.42-0.23c-4.28,0-7.87,0.12-10.42,0.23v-1.16
				c3.47-0.69,4.98-1.27,4.98-10.53v-24.88c0-12.04-5.32-15.51-11.92-15.51c-5.21,0-9.49,2.2-12.73,4.98v35.42
				c0,9.26,1.5,9.84,4.98,10.53v1.16c-2.55-0.12-6.13-0.23-10.42-0.23c-4.28,0-7.87,0.12-10.42,0.23v-1.16
				c3.47-0.69,4.98-1.27,4.98-10.53V65.04c0-5.67-0.12-7.41-3.59-8.33v-1.16c4.98-0.12,10.42-1.27,14.47-3.12v38.31
				c5.67-4.28,11.46-5.67,17.24-5.67c7.75,0,18.29,2.43,18.29,18.87v25.23c0,9.26,1.5,9.84,4.98,10.53V140.85z"/>
			<path class="st0" d="M708.29,130.78c-5.09,7.06-11.69,11-20.95,11c-16.2,0-27.43-12.27-27.43-28.47
				c0-16.67,12.04-28.24,26.27-28.24c11,0,21.88,6.94,21.88,21.76h-36.23c0,0-0.12,1.04-0.12,2.89c0,16.32,8.8,26.39,21.18,26.39
				c4.98,0,9.61-1.62,14.58-6.37L708.29,130.78z M696.25,103.81c-0.23-11-4.28-16.43-10.53-16.43c-7.29,0-12.15,7.29-13.54,16.43
				H696.25z"/>
			<path class="st0" d="M735.49,140.85c-2.55-0.12-6.13-0.23-10.42-0.23c-4.28,0-7.87,0.12-10.42,0.23v-1.16
				c3.47-0.69,4.98-1.27,4.98-10.53V97.68c0-5.67-0.12-7.41-3.59-8.33v-1.16c5.09-0.12,10.53-1.27,14.47-3.12v7.41
				c4.17-3.94,7.98-7.41,13.31-7.41c5.79,0,9.03,3.94,9.03,12.96H742.2c0-4.75-1.85-6.37-4.63-6.37c-2.08,0-4.28,0.93-7.06,4.05
				v33.45c0,9.26,1.5,9.84,4.98,10.53V140.85z"/>
		</g>
		<g>
			<path class="st0" d="M372.11,245.49c6.6-1.04,6.95-2.31,6.95-17.82v-46.41c0-15.51-0.7-16.78-6.95-17.94v-1.16
				c2.55,0.12,8.22,0.23,12.96,0.23c4.63,0,12.96-0.12,15.86-0.12c39,0,51.62,21.64,51.62,42.71c0,22.57-14.58,41.78-46.06,41.78
				c-4.28,0-14.47-0.35-21.53-0.35c-4.05,0-10.3,0.12-12.85,0.23V245.49z M391.1,242.37c3.93,0.93,10.42,1.27,14.12,1.27
				c20.72,0,33.68-10.65,33.68-38.43c0-33.56-18.87-39.81-36.57-39.81c-3.36,0-8.1,0.23-11.23,1.16V242.37z"/>
			<path class="st0" d="M507.3,236.58c-5.09,7.06-11.69,11-20.95,11c-16.2,0-27.43-12.27-27.43-28.47
				c0-16.67,12.04-28.24,26.27-28.24c10.99,0,21.87,6.94,21.87,21.76h-36.22c0,0-0.12,1.04-0.12,2.89
				c0,16.32,8.79,26.39,21.18,26.39c4.98,0,9.61-1.62,14.58-6.37L507.3,236.58z M495.26,209.61c-0.23-11-4.28-16.43-10.53-16.43
				c-7.29,0-12.15,7.29-13.54,16.43H495.26z"/>
			<path class="st0" d="M562.51,241.67c-2.08,3.36-5.79,5.56-10.19,5.56c-3.7,0-6.37-1.62-6.83-6.02
				c-4.75,4.05-10.42,6.37-16.55,6.37c-9.38,0-15.86-5.32-15.86-12.96c0-8.8,8.68-14.81,19.68-14.81c4.51,0,9.03,1.04,12.27,3.01
				v-16.67c0-8.91-2.89-12.62-8.8-12.62c-6.6,0-10.88,4.63-10.99,14.58h-9.96c1.85-12.38,11.11-17.25,22.11-17.25
				c11.23,0,18.52,5.09,18.52,20.02v24.3c0,5.09,0.81,6.6,3.12,6.6c0.93,0,1.74-0.23,2.89-1.16L562.51,241.67z M545.03,238.89
				v-13.54c-2.32-1.74-5.9-2.66-9.26-2.66c-7.06,0-10.88,4.28-10.88,10.65c0,6.25,3.59,10.07,9.49,10.07
				C537.62,243.41,541.32,242.25,545.03,238.89z"/>
			<path class="st0" d="M588.08,246.65c-2.54-0.12-6.13-0.23-10.42-0.23c-4.28,0-7.87,0.12-10.42,0.23v-1.16
				c3.47-0.69,4.98-1.27,4.98-10.53v-64.12c0-5.67-0.12-7.41-3.59-8.33v-1.16c4.98-0.12,10.42-1.27,14.47-3.12v76.73
				c0,9.26,1.51,9.84,4.98,10.53V246.65z"/>
		</g>
	</g>
</g>
</svg>
