<?xml version="1.0" encoding="utf-8"?>
<!-- Generator: Adobe Illustrator 27.2.0, SVG Export Plug-In . SVG Version: 6.00 Build 0)  -->
<svg version="1.1" id="Layer_1" xmlns="http://www.w3.org/2000/svg" xmlns:xlink="http://www.w3.org/1999/xlink" x="0px" y="0px"
	 viewBox="0 0 300 300" style="enable-background:new 0 0 300 300;" xml:space="preserve">
<style type="text/css">
	.st0{fill:#F3F8F2;}
</style>
<path class="st0" d="M279.81,256.45c-2,1-3.67,1.67-6.34,1.67c-5.34,0-7.67-3.67-7.67-19.02V21.86
	c-14.35,6.67-32.7,10.34-51.73,10.34v5.01c10.01,2.67,10.35,9.68,10.35,30.03v57.4c-7.68-5.34-17.69-8.68-30.7-8.68
	c-17.9,0-34.36,5.54-47.72,15.16c0.26-5.9,0.62-11.9,1-17.49h-5.01C136.32,140.99,118.97,142,97.61,142H78.92V44.22
	c4-0.67,15.02-1.33,22.69-1.33c35.04,0,47.72,2,63.74,45.72h5.01c-0.33-7.01-0.33-23.03-0.33-29.7c0-8.68,0.33-20.36,0.67-28.7
	c-25.03,0.67-74.08,0.67-114.13,0.67c-12.35,0-31.7-0.33-39.04-0.67v5.01c15.35,2.67,16.69,9.68,16.69,47.05v139.82
	c0,37.38-1.33,44.38-16.69,47.05v5c7.34-0.33,26.7-0.67,39.04-0.67s31.7,0.33,39.04,0.67v-5c-15.35-2.67-16.69-9.68-16.69-47.05
	v-68.74h18.69c10.59,0,19.24,0.2,26.14,2.36c-7.07,12.2-11.13,26.6-11.13,42.35c0,48.72,33.71,80.09,76.09,80.09
	c16.35,0,27.7-5,38.71-14.35c4.67,10.68,13.68,14.35,24.69,14.35c14.02,0,24.03-8.34,30.37-17.35L279.81,256.45z M198.72,265.46
	c-25.7,0-40.04-23.36-40.04-67.41c0-52.39,12.01-71.75,37.71-71.75c14.68,0,24.36,5.67,28.03,12.68v106.45c0,4,0.33,7.34,0.67,10.34
	C217.74,262.79,208.73,265.46,198.72,265.46z"/>
</svg>
